<?xml version="1.0" encoding="UTF-8" standalone="no"?>
<!-- Uploaded to: SVG Repo, www.svgrepo.com, Transformed by: SVG Repo Mixer Tools -->

<svg
   version="1.1"
   id="Icons"
   viewBox="0 0 32 32"
   xml:space="preserve"
   width="800px"
   height="800px"
   fill="#9f6565"
   stroke="#9f6565"
   sodipodi:docname="snow.svg"
   inkscape:version="1.3 (0e150ed6c4, 2023-07-21)"
   xmlns:inkscape="http://www.inkscape.org/namespaces/inkscape"
   xmlns:sodipodi="http://sodipodi.sourceforge.net/DTD/sodipodi-0.dtd"
   xmlns="http://www.w3.org/2000/svg"
   xmlns:svg="http://www.w3.org/2000/svg"><defs
   id="defs12" /><sodipodi:namedview
   id="namedview12"
   pagecolor="#ffffff"
   bordercolor="#000000"
   borderopacity="0.25"
   inkscape:showpageshadow="2"
   inkscape:pageopacity="0.0"
   inkscape:pagecheckerboard="0"
   inkscape:deskcolor="#d1d1d1"
   inkscape:zoom="0.98375"
   inkscape:cx="400"
   inkscape:cy="400"
   inkscape:window-width="1920"
   inkscape:window-height="1001"
   inkscape:window-x="-9"
   inkscape:window-y="-9"
   inkscape:window-maximized="1"
   inkscape:current-layer="Icons" />&#10;&#10;<g
   id="SVGRepo_bgCarrier"
   stroke-width="0" />&#10;&#10;<g
   id="SVGRepo_tracerCarrier"
   stroke-linecap="round"
   stroke-linejoin="round" />&#10;&#10;<g
   id="SVGRepo_iconCarrier"> <style
   type="text/css"
   id="style1"> .st0{fill:none;stroke:#8184b1;stroke-width:2;stroke-linecap:round;stroke-linejoin:round;stroke-miterlimit:10;} .st1{fill:none;stroke:#8184b1;stroke-width:2;stroke-linejoin:round;stroke-miterlimit:10;} </style> <line
   class="st0"
   x1="10.5"
   y1="5.14"
   x2="10.5"
   y2="10.5"
   id="line1" /> <polyline
   class="st0"
   points="12.65,3 10.5,5.14 8.36,3 "
   id="polyline1" /> <line
   class="st0"
   x1="5.87"
   y1="7.82"
   x2="10.5"
   y2="10.5"
   id="line2" /> <polyline
   class="st0"
   points="5.08,4.89 5.87,7.82 2.94,8.61 "
   id="polyline2" /> <line
   class="st0"
   x1="5.87"
   y1="13.18"
   x2="10.5"
   y2="10.5"
   id="line3" /> <polyline
   class="st0"
   points="2.94,12.39 5.87,13.18 5.08,16.11 "
   id="polyline3" /> <line
   class="st0"
   x1="10.5"
   y1="15.86"
   x2="10.5"
   y2="10.5"
   id="line4" /> <polyline
   class="st0"
   points="8.36,18 10.5,15.86 12.65,18 "
   id="polyline4" /> <line
   class="st0"
   x1="15.14"
   y1="13.18"
   x2="10.5"
   y2="10.5"
   id="line5" /> <polyline
   class="st0"
   points="15.93,16.11 15.14,13.18 18.07,12.39 "
   id="polyline5" /> <line
   class="st0"
   x1="15.14"
   y1="7.82"
   x2="10.5"
   y2="10.5"
   id="line6" /> <polyline
   class="st0"
   points="18.07,8.61 15.14,7.82 15.93,4.89 "
   id="polyline6" /> <line
   class="st0"
   x1="23"
   y1="18.79"
   x2="23"
   y2="23.04"
   id="line7" /> <polyline
   class="st0"
   points="24.7,17.09 23,18.79 21.3,17.09 "
   id="polyline7" /> <line
   class="st0"
   x1="19.32"
   y1="20.91"
   x2="23"
   y2="23.04"
   id="line8" /> <polyline
   class="st0"
   points="18.7,18.59 19.32,20.91 17,21.53 "
   id="polyline8" /> <line
   class="st0"
   x1="19.32"
   y1="25.16"
   x2="23"
   y2="23.04"
   id="line9" /> <polyline
   class="st0"
   points="17,24.54 19.32,25.16 18.7,27.48 "
   id="polyline9" /> <line
   class="st0"
   x1="23"
   y1="27.28"
   x2="23"
   y2="23.04"
   id="line10" /> <polyline
   class="st0"
   points="21.3,28.98 23,27.28 24.7,28.98 "
   id="polyline10" /> <line
   class="st0"
   x1="26.68"
   y1="25.16"
   x2="23"
   y2="23.04"
   id="line11" /> <polyline
   class="st0"
   points="27.3,27.48 26.68,25.16 29,24.54 "
   id="polyline11" /> <line
   class="st0"
   x1="26.68"
   y1="20.91"
   x2="23"
   y2="23.04"
   id="line12" /> <polyline
   class="st0"
   points="29,21.53 26.68,20.91 27.3,18.59 "
   id="polyline12" /> </g>&#10;&#10;<path
   style="fill:#e6e6e6;stroke-width:1.01652"
   d="m 198.68781,471.79988 c -8.97109,-4.17749 -13.69718,-11.68701 -13.65913,-21.7037 0.0388,-10.20934 1.82959,-12.68833 28.49803,-39.44959 l 24.3386,-24.4233 v -40.37975 c 0,-22.20887 -0.17835,-40.37975 -0.39634,-40.37975 -0.38791,0 -68.96792,39.55538 -69.51069,40.09218 -0.15154,0.14988 -4.20278,14.86262 -9.00277,32.69499 -4.79999,17.83236 -9.41692,33.79478 -10.25985,35.47204 -4.25407,8.46478 -11.94985,13.13954 -21.63086,13.13954 -13.7974,0 -24.45787,-10.68999 -24.3717,-24.43918 0.0136,-2.17148 3.15716,-15.38397 6.98566,-29.3611 3.82851,-13.97713 6.67633,-25.71557 6.3285,-26.08543 -0.34783,-0.36986 -12.06825,-3.73749 -26.045379,-7.48364 -13.977129,-3.74613 -26.556544,-7.40703 -27.954257,-8.13533 -3.302816,-1.72097 -8.506809,-7.28136 -10.472494,-11.18969 -5.587809,-11.11012 -1.115664,-25.02608 10.175505,-31.6631 7.971737,-4.68584 12.965453,-4.10574 48.581615,5.64353 16.77255,4.59118 31.02977,8.52909 31.68271,8.75093 0.9703,0.32966 68.32774,-37.76934 70.67417,-39.97503 0.61108,-0.57442 -63.98213,-38.62261 -68.43278,-40.30985 -0.90972,-0.34489 -16.16711,3.28851 -33.90533,8.07419 -33.661811,9.0818 -39.274904,9.9503 -46.048879,7.12495 -4.720643,-1.96892 -9.974446,-6.93543 -12.481849,-11.79928 -5.9637,-11.56841 -1.034741,-26.7192 10.48023,-32.21447 2.376789,-1.13427 15.4792,-5.0523 29.116468,-8.70672 13.63727,-3.65444 24.90447,-6.77001 25.03822,-6.92351 0.13375,-0.15349 -2.92414,-11.94363 -6.79531,-26.20031 -8.13996,-29.97767 -8.45491,-34.00861 -3.30768,-42.33406 4.34786,-7.0325 10.99439,-10.878314 19.61474,-11.349466 5.84119,-0.319255 7.44766,0.01254 12.17959,2.515576 9.39817,4.9713 10.37298,7.09488 20.51243,44.68561 7.46552,27.67748 9.404,33.68209 11.28132,34.94486 1.24676,0.83863 16.93456,10.01574 34.86179,20.39357 l 32.59496,18.86879 0.26585,-40.68584 0.26585,-40.68583 -24.86497,-24.9428 c -16.14666,-16.197192 -25.41765,-26.267929 -26.4412,-28.722102 -2.13622,-5.121972 -1.97973,-14.548012 0.32576,-19.623187 5.15804,-11.354627 17.06899,-16.733734 29.22771,-13.199533 5.67455,1.649434 6.99135,2.746646 26.33498,21.943444 l 20.36177,20.207195 18.77419,-18.852103 c 22.0461,-22.13758 25.15604,-24.323447 34.53024,-24.270104 14.06214,0.08002 24.44556,10.723694 24.37412,24.985039 -0.0432,8.629174 -2.64738,12.088589 -29.01781,38.548001 l -24.85905,24.94294 0.26598,40.3349 0.26598,40.33489 34.56163,-19.90109 c 19.0089,-10.9456 34.86869,-20.19356 35.24398,-20.55103 0.37528,-0.35745 4.58964,-15.15852 9.36523,-32.89126 8.81977,-32.74962 10.75684,-38.18901 15.01232,-42.15555 6.56485,-6.119085 18.76106,-8.168391 26.82189,-4.50683 8.00456,3.636 14.72455,14.01159 14.69113,22.68295 -0.005,1.28991 -3.19923,14.20822 -7.09834,28.70735 -3.89911,14.49914 -6.94465,26.50671 -6.76786,26.6835 0.17678,0.17679 12.08656,3.51825 26.46616,7.42547 30.0998,8.17871 33.35698,9.79494 37.72266,18.71807 8.03623,16.42546 -3.06247,35.16922 -20.82469,35.16922 -3.25991,0 -16.83667,-3.15835 -37.1423,-8.64041 -17.60234,-4.75222 -32.44356,-8.6404 -32.98048,-8.6404 -0.53691,0 -16.56089,9.00112 -35.60884,20.00251 -27.23996,15.73276 -34.35341,20.25772 -33.32456,21.19817 0.71944,0.65761 16.44417,9.91828 34.94385,20.57925 l 33.6358,19.38359 33.45442,-9.06569 c 18.39994,-4.98614 34.88358,-9.0675 36.63031,-9.0697 1.74674,-0.002 5.07043,0.66444 7.38596,1.48141 17.92731,6.32513 22.44188,29.32774 8.15591,41.556 -4.36609,3.73721 -6.91399,4.60206 -38.0316,12.90942 -11.1817,2.98515 -20.47421,5.52237 -20.65002,5.63827 -0.17582,0.11591 2.75534,11.35025 6.51366,24.96522 8.13323,29.46358 8.68404,35.13951 4.15735,42.84051 -8.81241,14.99202 -27.88048,16.86235 -39.60499,3.88473 -4.12872,-4.57 -3.6144,-3.0281 -14.43677,-43.28075 -4.2034,-15.63408 -8.21461,-28.98101 -8.9138,-29.65985 -1.3269,-1.28828 -65.72629,-38.62977 -68.37222,-39.64511 -1.32542,-0.5086 -1.51404,4.46117 -1.51404,39.89186 v 40.47284 l 25.82281,25.96374 c 22.7465,22.87064 25.9682,26.50774 27.0432,30.53009 4.1434,15.50346 -5.93166,30.20769 -21.46771,31.33147 -10.80066,0.78125 -13.14054,-0.72795 -35.73965,-23.05182 l -20.09738,-19.8526 -20.06091,19.96984 c -12.63869,12.58132 -21.45704,20.55318 -23.83439,21.5465 -5.57831,2.33077 -13.57544,1.99302 -19.63636,-0.8293 z"
   id="path12"
   transform="scale(0.04)" /><path
   style="fill:#e6e6e6;stroke-width:1.01652"
   d="m 521.64511,746.01944 c -11.17415,-5.56832 -16.50187,-19.40162 -11.81497,-30.67725 0.99335,-2.38978 8.84185,-11.08848 21.34689,-23.65933 l 19.77596,-19.88004 v -26.62568 c 0,-14.64413 -0.19726,-26.62568 -0.43835,-26.62568 -0.90552,0 -44.84426,25.60692 -45.90862,26.75496 -0.61155,0.65961 -4.0423,12.40071 -7.6239,26.09131 -7.51073,28.70973 -9.24337,32.2418 -18.06389,36.82414 -13.27395,6.89592 -28.31002,1.30968 -34.15997,-12.69121 -2.43648,-5.83131 -1.89225,-11.15782 3.01995,-29.55711 2.51487,-9.41975 4.57249,-17.75027 4.57249,-18.51227 0,-0.77521 -1.90293,-1.88267 -4.3202,-2.51426 -34.17839,-8.93025 -35.76751,-9.53826 -41.27093,-15.79047 -8.8788,-10.08685 -8.35522,-22.80133 1.33813,-32.49467 5.30395,-5.30395 10.4124,-7.58945 16.96362,-7.58945 1.91321,0 14.54634,2.97331 28.07362,6.60737 13.52728,3.63405 25.17443,6.60785 25.88254,6.60845 1.44664,0.001 46.52905,-25.63684 46.47595,-26.43056 -0.0463,-0.69154 -43.43273,-25.54461 -45.5418,-26.08772 -0.92384,-0.23789 -12.88683,2.56058 -26.58441,6.21883 -13.69759,3.65824 -26.45265,6.65199 -28.34458,6.65276 -6.50967,0.003 -11.62978,-2.29289 -16.92494,-7.58806 -9.06584,-9.06584 -10.1606,-20.89882 -2.84538,-30.75478 5.35568,-7.2158 8.36751,-8.44934 42.77818,-17.52032 2.41236,-0.63592 4.3202,-1.75068 4.3202,-2.5243 0,-0.762 -2.05762,-9.09253 -4.57249,-18.51228 -2.51486,-9.41975 -4.57331,-19.08561 -4.57433,-21.47968 -0.008,-17.6585 19.67652,-29.17086 35.57439,-20.80598 8.93626,4.70194 10.47911,7.82336 18.22751,36.87696 5.79624,21.73372 7.22265,25.93707 9.30375,27.4162 3.19674,2.27207 43.33147,25.41459 44.07504,25.41459 0.31263,0 0.56842,-11.97192 0.56842,-26.60427 v -26.60426 l -20.19777,-20.40971 c -22.15372,-22.38618 -23.04957,-23.75874 -22.2971,-34.16172 0.87029,-12.03145 10.16359,-21.26951 22.27827,-22.14581 10.18898,-0.737 13.55605,1.21208 30.11414,17.43202 l 14.52619,14.22953 14.98,-14.70767 c 15.75645,-15.46999 18.40804,-17.14246 27.17822,-17.14246 17.67135,0 29.73686,19.04072 21.90061,34.56162 -1.42393,2.82031 -9.48283,11.80503 -21.01687,23.43133 l -18.70736,18.85699 0.27141,26.63479 0.2714,26.63479 21.34689,-12.31542 c 11.74078,-6.77348 22.11737,-13.06434 23.05909,-13.97971 0.99668,-0.9688 4.30032,-11.43458 7.90545,-25.04422 7.1641,-27.04493 8.11812,-29.54928 13.1095,-34.41274 9.83912,-9.58694 25.84162,-9.07319 34.78862,1.11689 7.61877,8.6773 7.83914,14.70056 1.41661,38.7203 -2.59161,9.69247 -4.53977,17.79495 -4.32922,18.0055 0.21056,0.21055 8.74873,2.62763 18.97374,5.37128 21.58467,5.79179 25.40226,7.89243 29.89767,16.45121 7.9032,15.04687 -1.89946,33.49256 -18.72176,35.22877 -4.65398,0.48034 -9.30461,-0.45927 -30.47913,-6.15795 -13.74294,-3.69863 -25.56476,-6.72478 -26.2707,-6.72478 -1.706,0 -45.79206,25.50394 -45.79206,26.49086 0,1.00835 43.99878,26.3681 45.74826,26.3681 0.73989,0 12.59165,-3.01809 26.33725,-6.70686 21.02854,-5.64322 25.86078,-6.61981 30.47017,-6.15796 11.95638,1.198 20.58926,10.497 21.26762,22.90868 0.3196,5.84761 -0.0147,7.46078 -2.55292,12.31954 -4.46075,8.5389 -8.72927,10.86777 -30.5859,16.6875 -10.18141,2.71099 -18.51167,5.29623 -18.51167,5.74498 0,0.44875 2.08973,8.50752 4.64383,17.90836 5.14021,18.91942 5.68245,25.31881 2.71395,32.02949 -2.15402,4.86948 -7.99399,10.50428 -13.09618,12.63613 -4.45758,1.86248 -13.75537,1.77332 -18.43656,-0.17681 -4.86515,-2.02676 -10.74396,-7.77277 -12.79091,-12.50196 -0.88383,-2.04199 -4.39519,-14.23366 -7.80303,-27.09262 -3.40783,-12.85896 -6.82174,-24.02054 -7.58646,-24.80354 -0.76471,-0.78298 -11.14004,-7.0319 -23.05627,-13.8865 l -21.66588,-12.4629 -0.2714,26.54159 -0.27141,26.54159 18.70736,18.85698 c 20.60445,20.76925 23.20055,24.51064 23.25492,33.51379 0.0831,13.76578 -10.41356,24.47917 -23.98398,24.47917 -3.19596,0 -7.49285,-0.70279 -9.54865,-1.56176 -2.19971,-0.9191 -9.70922,-7.48227 -18.24915,-15.9494 l -14.51132,-14.38764 -14.1418,13.91906 c -8.89784,8.75769 -15.78272,14.66365 -18.56699,15.92707 -6.45177,2.92761 -14.41122,2.70287 -21.0266,-0.59371 z"
   id="path13"
   transform="scale(0.04)" /></svg>
