<?xml version="1.0" encoding="UTF-8" standalone="no"?>
<!-- Uploaded to: SVG Repo, www.svgrepo.com, Transformed by: SVG Repo Mixer Tools -->

<svg
   width="800px"
   height="800px"
   viewBox="0 0 16 16"
   fill="#000000"
   version="1.1"
   id="svg1"
   sodipodi:docname="storm.svg"
   inkscape:version="1.3 (0e150ed6c4, 2023-07-21)"
   xmlns:inkscape="http://www.inkscape.org/namespaces/inkscape"
   xmlns:sodipodi="http://sodipodi.sourceforge.net/DTD/sodipodi-0.dtd"
   xmlns="http://www.w3.org/2000/svg"
   xmlns:svg="http://www.w3.org/2000/svg">
  <defs
     id="defs1" />
  <sodipodi:namedview
     id="namedview1"
     pagecolor="#ffffff"
     bordercolor="#000000"
     borderopacity="0.25"
     inkscape:showpageshadow="2"
     inkscape:pageopacity="0.0"
     inkscape:pagecheckerboard="0"
     inkscape:deskcolor="#d1d1d1"
     inkscape:zoom="0.98375"
     inkscape:cx="400"
     inkscape:cy="318.67853"
     inkscape:window-width="1920"
     inkscape:window-height="1001"
     inkscape:window-x="-9"
     inkscape:window-y="-9"
     inkscape:window-maximized="1"
     inkscape:current-layer="svg1" />
  <g
     id="SVGRepo_bgCarrier"
     stroke-width="0" />
  <g
     id="SVGRepo_tracerCarrier"
     stroke-linecap="round"
     stroke-linejoin="round" />
  <g
     id="SVGRepo_iconCarrier">
    <path
       d="m 9 0 c -2.027344 0.00390625 -3.855469 1.234375 -4.617188 3.113281 c -0.289062 -0.074219 -0.585937 -0.113281 -0.882812 -0.113281 c -1.933594 0 -3.5 1.566406 -3.5 3.5 s 1.566406 3.5 3.5 3.5 h 1.058594 l 0.96875 -4.222656 c 0.101562 -0.453125 0.507812 -0.777344 0.972656 -0.777344 h 3.75 c 0.3125 0 0.609375 0.148438 0.796875 0.394531 c 0.191406 0.25 0.25 0.574219 0.167969 0.875 l -0.769532 2.730469 h 1.554688 c 0.550781 0.003906 0.996094 0.449219 0.996094 1 h 0.503906 c 1.378906 0 2.5 -1.121094 2.5 -2.5 c 0 -1.1875 -0.839844 -2.214844 -2.003906 -2.449219 c 0 -0.015625 0.003906 -0.035156 0.003906 -0.050781 c 0 -2.761719 -2.238281 -5 -5 -5 z m -2.5 6 l -1.375 6 h 2.875 l -1 4 l 5 -6 h -2.875 l 1.125 -4 z m 0 0"
       fill="#2d2b91"
       id="path1" />
  </g>
  <path
     style="fill:#808080;stroke-width:1.01652"
     d="M 156.54384,498.48635 C 135.13213,496.04664 116.61024,490.52991 97.07751,480.77437 79.66673,472.07864 67.162395,463.04756 52.796254,448.79288 25.276912,421.48705 9.5018541,391.23409 2.9713718,353.24015 0.47957072,338.743 0.28369332,313.73266 2.5454463,298.85642 12.312598,234.61489 57.658267,180.50629 118.88403,160.03571 c 22.27368,-7.44713 29.00531,-8.46865 55.95714,-8.49151 21.03981,-0.0178 25.09335,0.24958 33.99539,2.24271 5.55897,1.24463 10.42603,1.91667 10.81569,1.49343 0.38966,-0.42325 2.1966,-4.20029 4.01543,-8.39343 12.04433,-27.76718 35.77856,-60.489644 58.77168,-81.028692 38.73505,-34.600849 81.85979,-54.966469 133.31668,-62.9586927 16.29529,-2.53096655 52.7666,-2.53639069 69.12325,-0.01028 78.10907,12.0631197 143.13894,56.3856467 181.92641,123.9959347 19.35483,33.73731 30.41016,71.94183 32.21537,111.32845 0.41748,9.10856 1.08414,14.69884 1.77656,14.8974 22.44531,6.43642 35.19543,12.29508 48.40488,22.24197 31.94144,24.05232 49.84874,59.88303 49.84874,99.7423 0,33.78013 -12.39319,63.76707 -36.1297,87.42058 -20.19986,20.12921 -45.73225,32.61791 -73.69539,36.04672 -9.89946,1.21386 -38.65058,1.43236 -38.66204,0.29382 -0.004,-0.41932 -0.48766,-3.73571 -1.07428,-7.36976 -2.97108,-18.4054 -16.72057,-33.82293 -35.36566,-39.65612 -6.01102,-1.88057 -9.38671,-2.02114 -48.53876,-2.02114 -30.93016,0 -42.07843,-0.3084 -42.07843,-1.16405 0,-0.64024 8.21279,-30.25904 18.25063,-65.81957 10.03786,-35.56053 18.95105,-67.62883 19.80709,-71.26288 4.1667,-17.6883 -0.94858,-35.0043 -14.05967,-47.59424 -6.93793,-6.66214 -13.8673,-10.60433 -22.66977,-12.89708 -8.8532,-2.30597 -203.34752,-2.26914 -212.21362,0.0402 -14.3114,3.72764 -28.06541,15.25529 -33.3966,27.99069 -1.67963,4.01237 -12.16354,47.68408 -27.13116,113.01732 -13.41657,58.56294 -24.39376,106.7078 -24.39376,106.98856 0,0.85677 -63.01228,0.30598 -71.15629,-0.62198 z"
     id="path2"
     transform="scale(0.02)" />
  <path
     style="fill:#ffff00;stroke-width:1.01652"
     d="m 351.71537,796.14363 c 0,-0.40381 10.9784,-44.64049 24.39645,-98.30373 13.41804,-53.66324 24.39644,-97.8019 24.39644,-98.08591 0,-0.28401 -32.24905,-0.51638 -71.66455,-0.51638 -39.4155,0 -71.66455,-0.20696 -71.66455,-0.45991 0,-0.41136 66.39544,-290.53588 67.76508,-296.10934 l 0.56205,-2.28717 h 93.02831 93.0283 l -0.6004,2.79543 c -0.33022,1.53748 -12.91303,46.48031 -27.96181,99.87294 l -27.3614,97.0775 71.54398,0.26096 71.54398,0.26094 -122.11497,146.62597 C 347.5451,802.24856 351.71537,797.27788 351.71537,796.14363 Z"
     id="path3"
     transform="scale(0.02)" />
</svg>
